<svg xmlns="http://www.w3.org/2000/svg" width="155" height="95" viewBox="0 0 155 95">
    <g fill="#73C0D1" fill-rule="nonzero">
        <path d="M58.392 44.823a14.73 14.73 0 0 0 4.585-.105 14.73 14.73 0 0 0-3.371 3.11c-4.936 6.308-3.131 15.954-3.131 15.954s9.791-.59 14.728-6.9c2.836-3.658 3.463-8.485 3.45-11.855 9.527 3.506 28.567 8.67 45.433 1.856 23.625-9.545 34.018-38.972 34.018-38.972S126.187-6.036 102.562 3.51c-16.866 6.814-26.98 23.746-31.393 32.895-2.341-2.43-6.095-5.475-10.718-6.131-7.933-1.11-15.387 5.267-15.387 5.267s5.405 8.17 13.328 9.283zm76.806-31.678a2.21 2.21 0 1 1 1.656 4.098 2.21 2.21 0 0 1-1.656-4.098z"/>
        <path d="M31.867 47.066a.907.907 0 0 0 .022-1.27c-.304-.308-7.58-7.551-12.427-7.636a8.275 8.275 0 0 0-5.897 2.233 7.878 7.878 0 0 0-2.492 5.674 7.878 7.878 0 0 0 2.292 5.759 8.275 8.275 0 0 0 5.816 2.437c4.847.084 12.372-6.9 12.686-7.197zm-16.227-.024l.015-.895c0-.954.398-1.867 1.1-2.529a3.654 3.654 0 0 1 2.629-.985l.916.016-.03 1.79-.917-.017c-1.013-.017-1.847.77-1.865 1.757l-.015.895-1.833-.032zM17.325 77.101a.907.907 0 0 0-.96-.833c-.43.034-10.655.952-13.836 4.611a8.275 8.275 0 0 0-2.08 5.953 7.878 7.878 0 0 0 2.745 5.557 7.878 7.878 0 0 0 5.884 1.945 8.275 8.275 0 0 0 5.606-2.889c3.18-3.659 2.666-13.912 2.64-14.344zM6.876 89.516l-.675-.587a3.477 3.477 0 0 1-1.23-2.468 3.654 3.654 0 0 1 .934-2.647l.602-.692 1.35 1.174-.601.692c-.665.764-.598 1.91.147 2.558l.676.587-1.203 1.383zM48.31 75.448a.755.755 0 0 0-.914-.332c-.29.119-7.128 3-8.258 6.106-.527 1.4-.415 2.973.312 4.364.726 1.39 2.006 2.482 3.55 3.028 1.535.574 3.216.56 4.667-.037 1.45-.599 2.547-1.73 3.044-3.142 1.13-3.107-2.257-9.71-2.402-9.987zm-3.598 10.464l-.643-.234a2.83 2.83 0 0 1-1.585-1.343 2.353 2.353 0 0 1-.132-1.943l.214-.587 1.286.468-.214.587c-.236.65.148 1.385.859 1.643l.643.234-.428 1.175z" opacity=".7"/>
    </g>
</svg>
