<svg xmlns="http://www.w3.org/2000/svg" width="64" height="61" viewBox="0 0 64 61">
    <g fill="none" fill-rule="evenodd" stroke="#505068" stroke-linecap="round" stroke-linejoin="round" stroke-width="2.2">
        <path d="M32 14a4 4 0 0 0 4-4c0-2.209-4-8-4-8s-4 5.791-4 8a4 4 0 0 0 4 4zM14 16a3 3 0 0 0 3-3c0-1.657-3-6-3-6s-3 4.343-3 6a3 3 0 0 0 3 3zM50 16a3 3 0 0 1-3-3c0-1.657 3-6 3-6s3 4.343 3 6a3 3 0 0 1-3 3zM2 41.862a8.276 8.276 0 0 0 8.276 8.276c3.14 0 5.839-1.77 7.241-4.347 1.402 2.577 4.101 4.347 7.241 4.347 3.14 0 5.839-1.77 7.241-4.347 1.402 2.577 4.101 4.347 7.241 4.347 3.14 0 5.839-1.77 7.241-4.347 1.402 2.577 4.101 4.347 7.241 4.347a8.276 8.276 0 0 0 8.276-8.276"/>
        <path d="M58 37H6a4 4 0 0 0-4 4v18h60V41a4 4 0 0 0-4-4zM54 31v-4a4 4 0 0 0-4-4H14a4 4 0 0 0-4 4v4"/>
    </g>
</svg>
