<svg xmlns="http://www.w3.org/2000/svg" width="60" height="60" viewBox="0 0 60 60">
    <g fill="none" fill-rule="evenodd" stroke="#505068">
        <rect width="26.436" height="26.436" x="1.1" y="32.464" stroke-width="2.2" rx="5.508"/>
        <rect width="26.436" height="26.436" x="16.782" y="1.1" stroke-width="2.2" rx="5.508"/>
        <rect width="26.436" height="26.436" x="32.464" y="32.464" stroke-width="2.2" rx="5.508"/>
        <path stroke-linecap="round" stroke-linejoin="round" stroke-width="2" d="M34.392 20.59H28.64c-2.268 0-4.108-1.831-4.108-4.09s1.84-4.09 4.108-4.09h5.752v8.18z"/>
        <path stroke-linecap="round" stroke-linejoin="round" stroke-width="2" d="M27.819 7.5h3.286a3.28 3.28 0 0 1 3.287 3.273v9.818M10.367 35.864v18M15.297 53.864h-4.93v-9.819h4.93c2.723 0 4.93 2.198 4.93 4.91 0 2.711-2.207 4.909-4.93 4.909zM50.42 42a3.288 3.288 0 0 0-2.847-1.636h-3.286A3.28 3.28 0 0 0 41 43.636v4.91a3.28 3.28 0 0 0 3.287 3.272h3.286a3.288 3.288 0 0 0 2.848-1.636"/>
    </g>
</svg>
