<svg xmlns="http://www.w3.org/2000/svg" width="735" height="707" viewBox="0 0 735 707">
    <defs>
        <linearGradient id="a" x1="66.376%" x2="2.132%" y1="-1.906%" y2="114.365%">
            <stop offset="0%" stop-color="#FDD0C4"/>
            <stop offset="100%" stop-color="#FCC980"/>
        </linearGradient>
    </defs>
    <path fill="url(#a)" fill-rule="evenodd" d="M522.685 214.279H726.96a7.04 7.04 0 0 1 7.04 7.04V486.28a7.04 7.04 0 0 1-7.04 7.04H522.685v205.64a7.04 7.04 0 0 1-7.04 7.04h-296.49a7.04 7.04 0 0 1-7.04-7.04V493.32H7.04A7.04 7.04 0 0 1 0 486.28V221.32a7.04 7.04 0 0 1 7.04-7.04h205.076V7.04a7.04 7.04 0 0 1 7.04-7.04h296.489a7.04 7.04 0 0 1 7.04 7.04v207.239z" transform="translate(.722 .366)"/>
</svg>
